<svg xmlns="http://www.w3.org/2000/svg" viewBox="0 0 433.85 54.54"><defs><style>.cls-1{fill:#231815;}</style></defs><title>アセット 10</title><g id="レイヤー_2" data-name="レイヤー 2"><g id="レイヤー_1-2" data-name="レイヤー 1"><path class="cls-1" d="M59.9,4.22H62V37.64c0,11-6.94,16.9-16,16.9-7.47,0-13.05-4.07-14.94-11.16h-.15C29.12,50.47,23.46,54.54,16,54.54c-9,0-16-5.88-16-16.9V4.22H2.11V37.64c0,9.74,6,15,14,15S30,47.07,30,37.64V4.22h2.11V37.64c0,9.43,5.81,15,13.88,15s14-5.28,14-15Z"/><path class="cls-1" d="M78.38,53.56V0h2V25h.15c2.8-6.11,8.6-9.66,16.37-9.66,10.94,0,18.34,6.42,18.34,18.71V53.56h-2V34c0-10.78-6.48-16.9-16.44-16.9S80.34,23.31,80.34,34V53.56Z"/><path class="cls-1" d="M130.43,6.41a2.19,2.19,0,1,1,4.38,0,2.19,2.19,0,0,1-4.38,0Zm1.21,47.15V16.29h2V53.56Z"/><path class="cls-1" d="M178.19,40.28c0,9.43-5.66,14.26-14,14.26s-14.1-4.83-14.1-14.26V2.64h2V16.29h24.14V18H152V40.28c0,8.23,4.75,12.45,12.14,12.45s12.23-4.07,12.23-12.45v-.6h1.81Z"/><path class="cls-1" d="M193,35.08c.08,10.11,7.24,17.65,18,17.65,7.62,0,13.51-3.77,16.3-9.65h2.11C226.54,50,219.75,54.54,211,54.54c-11.77,0-20.06-8.3-20.06-19.61S199.23,15.31,211,15.31s20,8.3,20,19.62v.15Zm0-1.81h36c-.76-9.36-7.77-16.15-18-16.15S193.73,23.91,193,33.27Z"/><path class="cls-1" d="M283.57,53.56V23.39c0-11.17-6.48-18.26-18.4-18.26s-18.41,7.09-18.41,18.26V53.56h-2.11V23.39c0-12.3,7.31-20.15,20.52-20.15s20.52,7.85,20.52,20.15V53.56Z"/><path class="cls-1" d="M319.41,54.54c-11.77,0-20.07-8.3-20.07-19.61s8.3-19.62,20.07-19.62,20.06,8.3,20.06,19.62S331.18,54.54,319.41,54.54Zm18-19.61c0-10.19-7.24-17.81-18-17.81s-18,7.62-18,17.81,7.24,17.8,18,17.8S337.44,45.11,337.44,34.93Z"/><path class="cls-1" d="M381,40.28c0,9.43-5.66,14.26-14,14.26S352.9,49.71,352.9,40.28V2.64h2V16.29H379V18H354.86V40.28c0,8.23,4.76,12.45,12.15,12.45s12.22-4.07,12.22-12.45v-.6H381Z"/><path class="cls-1" d="M395.83,35.08c.07,10.11,7.24,17.65,18,17.65,7.62,0,13.5-3.77,16.29-9.65h2.11c-2.86,6.94-9.65,11.46-18.4,11.46-11.77,0-20.07-8.3-20.07-19.61s8.3-19.62,20.07-19.62,20,8.3,20,19.62v.15Zm0-1.81h36c-.75-9.36-7.77-16.15-17.95-16.15S396.58,23.91,395.83,33.27Z"/></g></g></svg>