<svg xmlns="http://www.w3.org/2000/svg" viewBox="0 0 469.81 58.46"><defs><style>.cls-1{fill:#231815;}</style></defs><title>logo</title><g id="レイヤー_2" data-name="レイヤー 2"><g id="レイヤー_1-2" data-name="レイヤー 1"><path class="cls-1" d="M0,39.62V4.53H5.82V39.62c0,9,5.26,13.5,12.29,13.5S30.4,48.35,30.4,39.62V4.53h5.82V39.62c0,8.73,5.18,13.5,12.29,13.5S60.8,48.59,60.8,39.62V4.53h5.83V39.62c0,12.53-7.69,18.84-17.71,18.84C41.64,58.46,36,55,33.31,48.59,30.64,55,25,58.46,17.71,58.46,7.68,58.46,0,52.15,0,39.62Z"/><path class="cls-1" d="M84.18,0H89.6V25.23c2.83-5.74,8.16-8.82,15.12-8.82,10.67,0,18.92,6.47,18.92,20.14V57.41h-5.42V36.55c0-9.87-5.66-15.12-14.31-15.12S89.6,26.84,89.6,36.55V57.41H84.18Z"/><path class="cls-1" d="M139.73,5.58a4.13,4.13,0,0,1,8.25,0,4.13,4.13,0,0,1-8.25,0Zm1.46,11.89h5.41V57.41h-5.41Z"/><path class="cls-1" d="M164.07,42.69V3.32h5.42V17.47H193V22.4H169.49V42.69c0,7.28,4,10.76,10.27,10.76S190,50.05,190,42.69V41.8h5.25v.89c0,10.51-6.31,15.77-15.52,15.77S164.07,53.2,164.07,42.69Z"/><path class="cls-1" d="M208.54,37.44c0-12.13,8.9-21,21.51-21s21.35,8.9,21.35,21v1.78H214.12c.73,8.32,7,14.23,15.93,14.23,6.31,0,11.16-2.59,13.75-7.2h5.9c-3.07,7.36-10.35,12.21-19.65,12.21C217.44,58.46,208.54,49.57,208.54,37.44Zm37.2-3.08c-1.3-8.08-7.6-12.93-15.69-12.93-8.33,0-14.55,5.09-15.76,12.93Z"/><path class="cls-1" d="M266,25.31C266,12,274,3.48,288.27,3.48S310.43,12,310.43,25.31v32.1h-5.82V25.31c0-10.19-5.66-16.5-16.34-16.5s-16.41,6.31-16.41,16.5v32.1H266Z"/><path class="cls-1" d="M325.07,37.44c0-12.13,8.89-21,21.51-21s21.51,8.9,21.51,21-8.9,21-21.51,21S325.07,49.57,325.07,37.44Zm37.52,0c0-9.22-6.47-16-16-16s-16,6.79-16,16,6.47,16,16,16S362.59,46.65,362.59,37.44Z"/><path class="cls-1" d="M382.48,42.69V3.32h5.42V17.47h23.53V22.4H387.9V42.69c0,7.28,4,10.76,10.27,10.76s10.27-3.4,10.27-10.76V41.8h5.25v.89c0,10.51-6.3,15.77-15.52,15.77S382.48,53.2,382.48,42.69Z"/><path class="cls-1" d="M427,37.44c0-12.13,8.89-21,21.5-21s21.35,8.9,21.35,21v1.78H432.54c.72,8.32,6.95,14.23,15.92,14.23,6.31,0,11.16-2.59,13.75-7.2h5.9c-3.07,7.36-10.35,12.21-19.65,12.21C435.85,58.46,427,49.57,427,37.44Zm37.19-3.08c-1.29-8.08-7.6-12.93-15.69-12.93-8.32,0-14.55,5.09-15.76,12.93Z"/></g></g></svg>