<svg xmlns="http://www.w3.org/2000/svg" viewBox="0 0 437.46 58.46"><defs><style>.cls-1{fill:#231815;}</style></defs><title>whitenote</title><g id="レイヤー_2" data-name="レイヤー 2"><g id="レイヤー_1-2" data-name="レイヤー 1"><path class="cls-1" d="M0,39.62V4.53H5.82V39.62c0,9,5.26,13.5,12.29,13.5S30.4,48.35,30.4,39.62V4.53h5.82V39.62c0,8.73,5.18,13.5,12.29,13.5S60.8,48.59,60.8,39.62V4.53h5.83V39.62c0,12.53-7.69,18.84-17.71,18.84C41.64,58.46,36,55,33.31,48.59,30.64,55,25,58.46,17.71,58.46,7.68,58.46,0,52.15,0,39.62Z"/><path class="cls-1" d="M80.14,0h5.41V25.23c2.83-5.74,8.17-8.82,15.12-8.82,10.68,0,18.92,6.47,18.92,20.14V57.41h-5.41V36.55c0-9.87-5.66-15.12-14.32-15.12S85.55,26.84,85.55,36.55V57.41H80.14Z"/><path class="cls-1" d="M131.65,5.58a4.12,4.12,0,1,1,8.24,0,4.12,4.12,0,1,1-8.24,0Zm1.45,11.88h5.42V57.41H133.1Z"/><path class="cls-1" d="M151.94,42.69V3.32h5.42V17.46h23.53V22.4H157.36V42.69c0,7.28,4,10.76,10.27,10.76s10.27-3.4,10.27-10.76V41.8h5.25v.89c0,10.51-6.31,15.77-15.52,15.77S151.94,53.2,151.94,42.69Z"/><path class="cls-1" d="M192.37,37.44c0-12.13,8.9-21,21.51-21s21.35,8.9,21.35,21v1.77H198c.73,8.33,7,14.24,15.93,14.24,6.31,0,11.16-2.59,13.75-7.2h5.9c-3.07,7.36-10.35,12.21-19.65,12.21C201.27,58.46,192.37,49.56,192.37,37.44Zm37.2-3.08c-1.3-8.08-7.6-12.93-15.69-12.93-8.33,0-14.55,5.09-15.77,12.93Z"/><path class="cls-1" d="M245.82,25.31c0-13.34,7.93-21.83,22.24-21.83S290.21,12,290.21,25.31v32.1h-5.82V25.31c0-10.19-5.66-16.5-16.33-16.5s-16.41,6.31-16.41,16.5v32.1h-5.83Z"/><path class="cls-1" d="M300.81,37.44c0-12.13,8.9-21,21.51-21s21.51,8.9,21.51,21-8.9,21-21.51,21S300.81,49.56,300.81,37.44Zm37.52,0c0-9.22-6.47-16-16-16s-16,6.79-16,16,6.47,16,16,16S338.33,46.65,338.33,37.44Z"/><path class="cls-1" d="M354.18,42.69V3.32h5.42V17.46h23.53V22.4H359.6V42.69c0,7.28,4,10.76,10.27,10.76s10.27-3.4,10.27-10.76V41.8h5.25v.89c0,10.51-6.31,15.77-15.52,15.77S354.18,53.2,354.18,42.69Z"/><path class="cls-1" d="M394.61,37.44c0-12.13,8.9-21,21.51-21s21.34,8.9,21.34,21v1.77H400.19c.73,8.33,6.95,14.24,15.93,14.24,6.31,0,11.16-2.59,13.75-7.2h5.9c-3.08,7.36-10.35,12.21-19.65,12.21C403.51,58.46,394.61,49.56,394.61,37.44Zm37.2-3.08c-1.3-8.08-7.6-12.93-15.69-12.93-8.33,0-14.55,5.09-15.77,12.93Z"/></g></g></svg>