<svg xmlns="http://www.w3.org/2000/svg" viewBox="0 0 469.8 58.5"><defs><style>.cls-1{fill:#fff}</style></defs><g id="レイヤー_2" data-name="レイヤー 2"><g id="レイヤー_1-2" data-name="レイヤー 1"><path class="cls-1" d="M0 40V5h6v35c0 9 5 13 12 13s12-5 12-13V5h6v35c0 8 5 13 13 13s12-4 12-13V5h6v35c0 12-8 18-18 18-7 0-13-3-16-9-2 6-8 9-15 9C8 58 0 52 0 40zM84 0h6v25c2-6 8-9 15-9 10 0 19 7 19 21v20h-6V37c0-10-5-16-14-16s-14 6-14 16v20h-6zM140 6a4 4 0 018 0 4 4 0 01-8 0zm1 11h6v40h-6zM164 43V3h5v14h24v5h-24v21c0 7 4 10 11 10s10-3 10-10v-1h5v1c0 10-6 15-15 15s-16-5-16-15zM209 37c0-12 8-21 21-21s21 9 21 21v2h-37c1 9 7 14 16 14 6 0 11-2 14-7h6c-3 8-11 12-20 12-13 0-21-8-21-21zm37-3c-2-8-8-13-16-13s-14 6-16 13zM266 25c0-13 8-22 22-22s22 9 22 22v32h-5V25c0-10-6-16-17-16s-16 6-16 16v32h-6zM325 37c0-12 9-21 22-21s21 9 21 21-9 21-21 21-22-8-22-21zm38 0c0-9-7-16-16-16s-16 7-16 16 6 16 16 16 16-6 16-16zM382 43V3h6v14h23v5h-23v21c0 7 4 10 10 10s10-3 10-10v-1h6v1c0 10-7 15-16 15s-16-5-16-15zM427 37c0-12 9-21 22-21s21 9 21 21v2h-37c0 9 6 14 15 14 7 0 12-2 14-7h6c-3 8-10 12-20 12-12 0-21-8-21-21zm37-3c-1-8-7-13-16-13-8 0-14 6-15 13z"/></g></g></svg>